<?xml version="1.0" encoding="utf-8"?>
<!-- Generator: Adobe Illustrator 26.0.1, SVG Export Plug-In . SVG Version: 6.00 Build 0)  -->
<svg version="1.1" id="Layer_1" xmlns="http://www.w3.org/2000/svg" xmlns:xlink="http://www.w3.org/1999/xlink" x="0px" y="0px"
	 viewBox="0 0 55 55" style="enable-background:new 0 0 55 55;" xml:space="preserve">
<style type="text/css">
	.st0{fill:#FFFFFF;}
</style>
<g>
	<g>
		<g>
			<path class="st0" d="M27.5,55C12.34,55,0,42.67,0,27.5C0,12.34,12.34,0,27.5,0C42.66,0,55,12.34,55,27.5
				C55,42.67,42.66,55,27.5,55z M27.5,2.21C13.56,2.21,2.21,13.56,2.21,27.5c0,13.94,11.34,25.29,25.28,25.29
				c13.94,0,25.29-11.34,25.29-25.29C52.79,13.56,41.44,2.21,27.5,2.21z"/>
		</g>
	</g>
	<g>
		<g>
			<path class="st0" d="M26.8,45.31c-9.16-0.36-16.75-7.94-17.1-17.1C9.3,18.06,17.44,9.68,27.5,9.68c0.61,0,1.11,0.5,1.11,1.11
				c0,0.61-0.5,1.11-1.11,1.11c-9.58,0-17.17,8.67-15.33,18.57c1.16,6.26,6.23,11.28,12.5,12.39c12.31,2.18,22.66-10.2,16.7-22.78
				c-0.64-1.34-1.7-2.39-2.71-3.48c-0.4-0.44-0.39-1.12,0.04-1.54c0.44-0.43,1.14-0.42,1.57,0.02c3.26,3.34,5.05,7.76,5.05,12.43
				C45.32,37.56,36.94,45.7,26.8,45.31z"/>
		</g>
		<g>
			<g>
				<path class="st0" d="M37.52,19.14l-2.48-5.93c-0.15-0.36,0.14-0.74,0.53-0.69l6.38,0.82c0.38,0.05,0.57,0.5,0.34,0.8l-3.89,5.11
					C38.15,19.56,37.66,19.5,37.52,19.14z"/>
			</g>
		</g>
	</g>
</g>
</svg>
