<?xml version="1.0" encoding="utf-8"?>
<!-- Generator: Adobe Illustrator 26.0.1, SVG Export Plug-In . SVG Version: 6.00 Build 0)  -->
<svg version="1.1" id="Layer_1" xmlns="http://www.w3.org/2000/svg" xmlns:xlink="http://www.w3.org/1999/xlink" x="0px" y="0px"
	 viewBox="0 0 55 55" style="enable-background:new 0 0 55 55;" xml:space="preserve">
<style type="text/css">
	.st0{fill:#FFFFFF;}
</style>
<g>
	<g>
		<path class="st0" d="M27.5,55C12.34,55,0,42.66,0,27.5S12.34,0,27.5,0S55,12.34,55,27.5S42.66,55,27.5,55z M27.5,2.22
			C13.56,2.22,2.21,13.56,2.21,27.5S13.56,52.78,27.5,52.78S52.79,41.44,52.79,27.5S41.44,2.22,27.5,2.22z"/>
	</g>
	<g>
		<path class="st0" d="M8.84,47.27c-0.28,0-0.57-0.11-0.78-0.32c-0.43-0.43-0.43-1.13,0-1.57L45.38,8.05c0.43-0.43,1.13-0.43,1.57,0
			c0.43,0.43,0.43,1.13,0,1.57L9.62,46.95C9.4,47.16,9.12,47.27,8.84,47.27z"/>
	</g>
	<g>
		<g>
			<path class="st0" d="M34.78,42.53c-4.27,0-7.75-3.48-7.75-7.75s3.48-7.75,7.75-7.75s7.75,3.48,7.75,7.75S39.06,42.53,34.78,42.53
				z M34.78,29.24c-3.05,0-5.54,2.48-5.54,5.54s2.48,5.54,5.54,5.54s5.54-2.48,5.54-5.54S37.84,29.24,34.78,29.24z"/>
		</g>
		<g>
			<path class="st0" d="M33.99,15.29c-2.03,0-3.68-1.65-3.68-3.68c0-2.03,1.65-3.68,3.68-3.68c2.03,0,3.68,1.65,3.68,3.68
				C37.66,13.64,36.01,15.29,33.99,15.29z M33.99,10.15c-0.81,0-1.47,0.66-1.47,1.46c0,0.81,0.66,1.47,1.47,1.47
				c0.81,0,1.46-0.66,1.46-1.47C35.45,10.81,34.79,10.15,33.99,10.15z"/>
		</g>
		<g>
			<path class="st0" d="M34.7,29.24c-0.58,0-1.07-0.46-1.1-1.04l-0.8-13.95c-0.03-0.61,0.43-1.13,1.04-1.17
				c0.61-0.03,1.13,0.43,1.17,1.04l0.8,13.95c0.03,0.61-0.43,1.13-1.04,1.17C34.75,29.24,34.72,29.24,34.7,29.24z"/>
		</g>
		<g>
			<path class="st0" d="M11.61,37.67c-2.03,0-3.68-1.65-3.68-3.68c0-2.03,1.65-3.68,3.68-3.68s3.68,1.65,3.68,3.68
				C15.29,36.01,13.64,37.67,11.61,37.67z M11.61,32.52c-0.81,0-1.47,0.66-1.47,1.47c0,0.81,0.66,1.47,1.47,1.47
				c0.81,0,1.47-0.66,1.47-1.47C13.08,33.18,12.42,32.52,11.61,32.52z"/>
		</g>
		<g>
			<path class="st0" d="M28.14,35.97c-0.02,0-0.04,0-0.06,0l-13.95-0.8c-0.61-0.03-1.08-0.56-1.04-1.17
				c0.04-0.61,0.56-1.1,1.17-1.04l13.95,0.8c0.61,0.03,1.08,0.56,1.04,1.17C29.21,35.51,28.72,35.97,28.14,35.97z"/>
		</g>
	</g>
</g>
</svg>
