<?xml version="1.0" encoding="utf-8"?>
<!-- Generator: Adobe Illustrator 26.0.1, SVG Export Plug-In . SVG Version: 6.00 Build 0)  -->
<svg version="1.1" id="Layer_1" xmlns="http://www.w3.org/2000/svg" xmlns:xlink="http://www.w3.org/1999/xlink" x="0px" y="0px"
	 viewBox="0 0 55 55" style="enable-background:new 0 0 55 55;" xml:space="preserve">
<style type="text/css">
	.st0{fill:#FFFFFF;}
</style>
<g>
	<g>
		<path class="st0" d="M36.83,40.9c-0.18,0-0.36-0.04-0.53-0.11l-8.8-3.84l-8.8,3.84c-0.41,0.18-0.88,0.14-1.25-0.11
			c-0.37-0.24-0.6-0.66-0.6-1.11V15.43c0-0.73,0.59-1.32,1.32-1.32h18.66c0.73,0,1.32,0.59,1.32,1.32v24.15
			c0,0.44-0.22,0.86-0.6,1.11C37.34,40.82,37.08,40.9,36.83,40.9z M27.5,34.19c0.18,0,0.36,0.04,0.53,0.11l7.48,3.26V16.75H19.49
			v20.81l7.48-3.26C27.14,34.23,27.32,34.19,27.5,34.19z M27.1,29.83c-0.34,0-0.66-0.13-0.91-0.36l-3.05-2.87
			c-0.53-0.5-0.56-1.34-0.06-1.87c0.5-0.53,1.34-0.55,1.87-0.06l2.03,1.91l3.99-4.77c0.47-0.56,1.3-0.63,1.86-0.16
			c0.56,0.47,0.63,1.3,0.16,1.86l-4.88,5.84c-0.23,0.28-0.57,0.45-0.93,0.47C27.16,29.83,27.13,29.83,27.1,29.83z"/>
	</g>
	<g>
		<g>
			<path class="st0" d="M27.5,55C12.34,55,0,42.67,0,27.5C0,12.34,12.34,0,27.5,0S55,12.34,55,27.5C55,42.67,42.66,55,27.5,55z
				 M27.5,2.64C13.79,2.64,2.64,13.79,2.64,27.5c0,13.71,11.15,24.86,24.86,24.86S52.36,41.21,52.36,27.5
				C52.36,13.79,41.21,2.64,27.5,2.64z"/>
		</g>
	</g>
</g>
</svg>
