<?xml version="1.0" encoding="utf-8"?>
<!-- Generator: Adobe Illustrator 26.0.1, SVG Export Plug-In . SVG Version: 6.00 Build 0)  -->
<svg version="1.1" id="Layer_1" xmlns="http://www.w3.org/2000/svg" xmlns:xlink="http://www.w3.org/1999/xlink" x="0px" y="0px"
	 viewBox="0 0 55 55" style="enable-background:new 0 0 55 55;" xml:space="preserve">
<style type="text/css">
	.st0{fill:#FFFFFF;}
</style>
<g>
	<g>
		<g>
			<path class="st0" d="M27.6,54.41c-14.89,0-27-12.11-27-27c0-14.89,12.11-27,27-27c14.89,0,27,12.11,27,27
				C54.6,42.3,42.49,54.41,27.6,54.41z M27.6,2.58c-13.69,0-24.82,11.14-24.82,24.83c0,13.69,11.14,24.83,24.82,24.83
				c13.69,0,24.83-11.14,24.83-24.83C52.43,13.72,41.29,2.58,27.6,2.58z"/>
		</g>
	</g>
	<g>
		<g>
			<path class="st0" d="M26.91,44.89c-9-0.35-16.44-7.79-16.79-16.79C9.73,18.14,17.73,9.91,27.6,9.91c0.6,0,1.09,0.49,1.09,1.09
				s-0.49,1.09-1.09,1.09c-9.4,0-16.85,8.51-15.05,18.23c1.14,6.15,6.11,11.08,12.27,12.16c12.09,2.14,22.25-10.02,16.4-22.37
				c-0.62-1.32-1.67-2.34-2.66-3.42c-0.4-0.43-0.38-1.1,0.04-1.51c0.43-0.42,1.12-0.41,1.54,0.02c3.2,3.28,4.96,7.62,4.96,12.2
				C45.1,37.29,36.87,45.28,26.91,44.89z"/>
		</g>
		<g>
			<g>
				<path class="st0" d="M37.44,19.21L35,13.38c-0.15-0.35,0.14-0.73,0.52-0.68l6.26,0.8c0.38,0.05,0.56,0.49,0.33,0.79l-3.82,5.02
					C38.05,19.62,37.58,19.56,37.44,19.21z"/>
			</g>
		</g>
	</g>
</g>
</svg>
